<svg xmlns="http://www.w3.org/2000/svg" data-name="Group 2852" viewBox="0 0 293.799 63.149">
  <defs>
    <clipPath id="a">
      <path fill="#008075" d="M0 0h293.799v63.149H0z" data-name="Rectangle 205"/>
    </clipPath>
  </defs>
  <g fill="#008075" clip-path="url(#a)" data-name="Group 2851">
    <path d="M35.561 53.156a10.082 10.082 0 1 1 10.334-10.078 10.221 10.221 0 0 1-10.334 10.078" data-name="Path 798"/>
    <path d="M32.9 63.149A32.923 32.923 0 0 1 1.29 39.921a31.292 31.292 0 0 1 2.684-24.152A32.428 32.428 0 0 1 23.766.191 5.037 5.037 0 0 1 25.134 0a4.926 4.926 0 0 1 4.715 3.493 4.818 4.818 0 0 1-3.094 5.872v.007l-.212.091a27.424 27.424 0 0 0-16.774 13.15 26.284 26.284 0 0 0-2.258 20.306 27.787 27.787 0 0 0 26.678 19.6 28.477 28.477 0 0 0 7.668-1.056l.122.437a33.745 33.745 0 0 1-9.083 1.25" data-name="Path 799"/>
    <path d="M36.156 60.409h-.4c-13.47 0-24.621-10.681-24.857-23.812a23.849 23.849 0 0 1 6.967-17.28 24.944 24.944 0 0 1 17.214-7.431l.3-.047a3.718 3.718 0 0 1 3.78 3.645 3.757 3.757 0 0 1-3.481 3.761v.008l-.223.026a21 21 0 0 0-14.656 6.21 19.935 19.935 0 0 0-5.856 14.485c.2 11.021 9.563 19.988 20.876 19.988h.337Z" data-name="Path 800"/>
    <path d="m27.344 55.394-.011-.007-.026-.017a17.611 17.611 0 0 1-7.875-11.263 17.257 17.257 0 0 1 2.557-13.253 18.523 18.523 0 0 1 25.187-5.256 2.784 2.784 0 0 1-1.6 5.071 2.806 2.806 0 0 1-1.52-.448 15.388 15.388 0 0 0-20.93 4.351 14.368 14.368 0 0 0-2.129 11.03 14.672 14.672 0 0 0 6.583 9.4Z" data-name="Path 801"/>
    <path d="M59.385 37.443v-2.531h3.551c.738 2 2.6 3.446 5.555 3.446 2.707 0 4.641-1.406 4.641-3.727 0-2.039-1.336-3.129-4.29-3.938l-2.109-.528c-4.747-1.2-7.138-3.657-7.138-7.63 0-4.712 3.621-7.559 8.966-7.559 4.465 0 7.313 1.758 8.157 4.536v2.531h-3.586c-.527-1.864-1.9-3.235-4.782-3.235-2.813 0-4.219 1.512-4.219 3.446 0 1.793 1.231 2.848 3.973 3.621l2.5.668c4.571 1.23 7.067 3.762 7.067 7.981 0 4.711-3.832 7.665-9.247 7.665-4.852 0-7.946-2.18-9.036-4.746" data-name="Path 802"/>
    <path d="M81.642 16.137h4.536v4.325h-4.536Zm.141 7.981h4.254v17.65h-4.254Z" data-name="Path 803"/>
    <path d="M90.953 24.118h3.9l.246 2.356a6.246 6.246 0 0 1 5.379-2.777c4.782 0 6.54 3.34 6.54 7.349v10.722h-4.29v-10.2c0-2.461-.984-4.184-3.516-4.184-3.024 0-4.008 2.18-4.008 4.184v10.2H90.95Z" data-name="Path 804"/>
    <path d="M112.68 35.686v-8.014h-2.778v-3.554h2.883l.246-4.43h3.9v4.43h6.961v3.554h-6.958v7.735c0 2.039.668 3.2 2.5 3.2 1.9 0 2.109-1.371 2.109-1.547h2.953v2.356c-.668 1.3-2.144 2.777-5.239 2.777-4.289 0-6.575-2.356-6.575-6.5" data-name="Path 805"/>
    <path d="M127.518 28.864h9.704v3.551h-9.704z" data-name="Rectangle 202"/>
    <path d="M139.752 41.768v-2.461l9.494-23.909h4.219l9.458 23.557v2.813h-3.762l-2.5-6.434h-10.826l-2.5 6.434Zm11.5-20.709-4.008 10.443h8.016Z" data-name="Path 806"/>
    <path d="M167.127 24.118h3.9l.246 2.25a5.344 5.344 0 0 1 4.676-2.672 5.189 5.189 0 0 1 5.064 2.954 6.02 6.02 0 0 1 5.344-2.954c4.36 0 6.047 3.235 6.047 7.138v10.934h-4.289V31.22c0-2.25-.808-3.832-2.953-3.832-2.461 0-3.306 1.969-3.306 3.657v10.723h-4.184V31.15c0-2.25-.844-3.762-2.953-3.762-2.532 0-3.34 2.11-3.34 4.114v10.266h-4.252Z" data-name="Path 807"/>
    <path d="M196.192 36.705c0-3.129 2.215-5.344 7.349-5.344a16.633 16.633 0 0 1 3.692.422v-.949c0-2.356-1.02-3.551-3.411-3.551a3.89 3.89 0 0 0-3.586 1.9h-3.024v-2.32s1.617-3.165 6.716-3.165c4.992 0 7.595 2.461 7.595 7.243v10.827h-3.657l-.386-2.426a6.173 6.173 0 0 1-5.38 2.848c-3.938 0-5.907-2.461-5.907-5.485m11.041-1.266v-.844a14.227 14.227 0 0 0-3.551-.422c-2.532 0-3.27 1.125-3.27 2.321 0 1.618.985 2.321 2.742 2.321a3.787 3.787 0 0 0 4.079-3.375" data-name="Path 808"/>
    <path d="M216.367 24.118h3.9l.246 2.356a6.246 6.246 0 0 1 5.379-2.777c4.782 0 6.54 3.34 6.54 7.349v10.722h-4.29v-10.2c0-2.461-.984-4.184-3.516-4.184-3.024 0-4.008 2.18-4.008 4.184v10.2h-4.251Z" data-name="Path 809"/>
    <path d="M236.28 32.944c0-5.168 3.129-9.247 8.122-9.247a6.972 6.972 0 0 1 5.977 3.024V15.399h4.254v26.37h-3.9l-.352-2.637a7.019 7.019 0 0 1-6.013 3.059c-5.063 0-8.087-4.184-8.087-9.247m14.1-.035c0-3.024-1.934-5.485-4.922-5.485-3.27 0-4.887 2.461-4.887 5.52 0 3.024 1.618 5.52 4.887 5.52 2.988 0 4.922-2.461 4.922-5.555" data-name="Path 810"/>
    <path d="M259.455 34.842V24.118h4.254v10.2c0 2.461.984 4.184 3.481 4.184 3.023 0 3.973-2.18 3.973-4.184v-10.2h4.29v17.65h-3.937l-.246-2.356a6.188 6.188 0 0 1-5.274 2.778c-4.782 0-6.54-3.34-6.54-7.349" data-name="Path 811"/>
    <path d="M279.445 38.92V36.6h3.023c.035.211 1.231 2.215 4.325 2.215 2.321 0 3.094-.774 3.094-1.934 0-1.442-1.441-1.793-3.34-2.18l-2.039-.387c-2.672-.457-4.747-1.9-4.747-5.1 0-3.023 2.391-5.52 6.68-5.52 3.9 0 5.766 1.512 6.5 3.059v2.32h-2.989a3.568 3.568 0 0 0-3.552-2.039c-1.968 0-2.707.844-2.707 1.969s1.055 1.723 2.637 2.039l2.039.386c2.883.528 5.415 1.688 5.415 5.028 0 3.27-2.426 5.731-7 5.731-5.238 0-7.138-2.778-7.348-3.27" data-name="Path 812"/>
    <path d="M59.399 50.78h2.928c2.345 0 3.831 1.311 3.831 3.321a3.535 3.535 0 0 1-3.831 3.6h-1.328v4.006h-1.6Zm2.913 5.608a2.091 2.091 0 0 0 2.243-2.229 2.069 2.069 0 0 0-2.243-2.068h-1.313v4.3Z" data-name="Path 813"/>
    <path d="M69.788 60.073v-1.019h1.165a2.44 2.44 0 0 0 2.418 1.484c1.195 0 2.068-.655 2.068-1.719 0-.961-.582-1.442-1.893-1.835l-.772-.233c-1.952-.583-2.855-1.573-2.855-3.117 0-1.85 1.427-3 3.511-3 1.733 0 2.753.67 3.131 1.66v1.02h-1.166a1.916 1.916 0 0 0-2.083-1.369c-1.252 0-1.864.728-1.864 1.573s.582 1.325 1.777 1.7l1.02.32c1.835.582 2.738 1.6 2.738 3.277 0 1.865-1.53 3.03-3.642 3.03a3.855 3.855 0 0 1-3.554-1.777" data-name="Path 814"/>
    <path d="m83.953 57.117-3.729-5.244V50.78h1.093l3.554 4.982 3.292-4.982h1.02v1.02l-3.627 5.331v4.574h-1.6Z" data-name="Path 815"/>
    <path d="M91.947 56.199a5.267 5.267 0 0 1 5.375-5.564c3.146 0 4.006 1.762 4.006 1.762v1.02h-1.166s-.495-1.471-2.8-1.471c-2.4 0-3.816 1.85-3.816 4.253s1.413 4.326 3.816 4.326a2.914 2.914 0 0 0 2.869-1.529h1.165v1.019s-.976 1.836-4.078 1.836c-3.539 0-5.375-2.549-5.375-5.652" data-name="Path 816"/>
    <path d="M105.673 50.781h1.6v4.661h5.243v-4.661h1.6v10.924h-1.6v-4.952h-5.243v4.952h-1.6Z" data-name="Path 817"/>
    <path d="M119.095 50.781h1.602v10.924h-1.602z" data-name="Rectangle 203"/>
    <path d="M124.556 61.704v-1.019l4.093-9.9h1.239l4.063 9.759v1.165h-1.165l-1.18-2.913h-4.719l-1.165 2.913Zm4.69-8.783-1.835 4.559h3.67Z" data-name="Path 818"/>
    <path d="M139.036 52.092h-3.5v-1.311h8.594v1.311h-3.5v9.613h-1.6Z" data-name="Path 819"/>
    <path d="M148.028 61.705V50.781h3.073c2.258 0 3.685 1.224 3.685 3.1a3.051 3.051 0 0 1-2.185 3.044l3 3.685v1.092h-1.091l-3.511-4.435h-1.369v4.442Zm3.059-5.753a1.92 1.92 0 0 0 2.1-2.01 1.861 1.861 0 0 0-2.1-1.777h-1.457v3.787Z" data-name="Path 820"/>
    <path d="M159.664 50.781h1.602v10.924h-1.602z" data-name="Rectangle 204"/>
    <path d="M165.703 60.073v-1.019h1.165a2.44 2.44 0 0 0 2.418 1.484c1.195 0 2.068-.655 2.068-1.719 0-.961-.582-1.442-1.893-1.835l-.772-.233c-1.952-.583-2.855-1.573-2.855-3.117 0-1.85 1.427-3 3.511-3 1.733 0 2.753.67 3.131 1.66v1.02h-1.166a1.916 1.916 0 0 0-2.083-1.369c-1.253 0-1.864.728-1.864 1.573s.582 1.325 1.777 1.7l1.02.32c1.835.582 2.738 1.6 2.738 3.277 0 1.865-1.53 3.03-3.642 3.03a3.855 3.855 0 0 1-3.554-1.777" data-name="Path 821"/>
    <path d="M176.53 56.199a5.267 5.267 0 0 1 5.375-5.564c3.146 0 4.005 1.762 4.005 1.762v1.02h-1.166s-.495-1.471-2.8-1.471c-2.4 0-3.816 1.85-3.816 4.253s1.413 4.326 3.816 4.326a2.914 2.914 0 0 0 2.869-1.529h1.165v1.019s-.976 1.836-4.078 1.836c-3.539 0-5.375-2.549-5.375-5.652" data-name="Path 822"/>
    <path d="M190.257 50.781h1.6v4.661h5.243v-4.661h1.6v10.924h-1.6v-4.952h-5.243v4.952h-1.6Z" data-name="Path 823"/>
    <path d="M209.376 56.199a5.267 5.267 0 0 1 5.375-5.564c3.146 0 4.005 1.762 4.005 1.762v1.02h-1.165s-.495-1.471-2.8-1.471c-2.4 0-3.816 1.85-3.816 4.253s1.413 4.326 3.816 4.326a2.914 2.914 0 0 0 2.869-1.529h1.165v1.019s-.976 1.836-4.078 1.836c-3.539 0-5.375-2.549-5.375-5.652" data-name="Path 824"/>
    <path d="M223.103 50.781h6.278v1.311h-4.675v3.35h4.238v1.311h-4.238v3.642h4.675v1.311h-6.278Z" data-name="Path 825"/>
    <path d="M233.665 50.781h1.457l5.535 8.346v-8.346h1.456v10.924h-1.456l-5.535-8.23v8.23h-1.457Z" data-name="Path 826"/>
    <path d="M249.502 52.092h-3.5v-1.311h8.594v1.311h-3.5v9.613h-1.6Z" data-name="Path 827"/>
    <path d="M258.495 61.705V50.781h3.073c2.258 0 3.685 1.224 3.685 3.1a3.051 3.051 0 0 1-2.185 3.044l3 3.685v1.092h-1.093l-3.507-4.435h-1.369v4.442Zm3.059-5.753a1.92 1.92 0 0 0 2.1-2.01 1.861 1.861 0 0 0-2.1-1.777h-1.457v3.787Z" data-name="Path 828"/>
    <path d="M269.877 57.767v-6.992h1.6v7.006a2.573 2.573 0 0 0 2.621 2.753 2.641 2.641 0 0 0 2.768-2.753v-7.006h1.456v6.992a4.227 4.227 0 0 1-8.448 0" data-name="Path 829"/>
    <path d="M284.663 52.733v8.972h-1.457V50.781h2.01l3.335 6.147 3.248-6.147h2v10.924h-1.6v-8.972l-3.219 6.132h-1.093Z" data-name="Path 830"/>
  </g>
</svg>
